<svg xmlns="http://www.w3.org/2000/svg" version="1.1" xmlns:xlink="http://www.w3.org/1999/xlink" xmlns:svgjs="http://svgjs.dev/svgjs" width="1500" height="1500" viewBox="0 0 1500 1500"><rect width="1500" height="1500" fill="#3febeb"></rect><g transform="matrix(0.6666666666666666,0,0,0.6666666666666666,249.39393939393938,622.9573142918588)"><svg viewBox="0 0 396 101" data-background-color="#3febeb" preserveAspectRatio="xMidYMid meet" height="382" width="1500" xmlns="http://www.w3.org/2000/svg" xmlns:xlink="http://www.w3.org/1999/xlink"><g id="tight-bounds" transform="matrix(1,0,0,1,0.2400000000000091,-0.11526993512200079)"><svg viewBox="0 0 395.52 101.230539870244" height="101.230539870244" width="395.52"><g><svg viewBox="0 0 564.7571566810818 144.54559027712858" height="101.230539870244" width="395.52"><g transform="matrix(1,0,0,1,169.23715668108184,19.9769954724541)"><svg viewBox="0 0 395.52 104.59159933222038" height="104.59159933222038" width="395.52"><g id="textblocktransform"><svg viewBox="0 0 395.52 104.59159933222038" height="104.59159933222038" width="395.52" id="textblock"><g><svg viewBox="0 0 395.52 104.59159933222038" height="104.59159933222038" width="395.52"><g transform="matrix(1,0,0,1,0,0)"><svg width="395.52" viewBox="0.9 -38.9 149.73999999999998 39.6" height="104.59159933222038" data-palette-color="#000000"><path d="M26.25-14.85L31.05-8.2 33.2-8.2 33.2 0 20.95 0 15.8-9.6 14.6-9.6 14.6 0 0.9 0 0.9-8.2 3.1-8.2 3.1-30.7 0.9-30.7 0.9-38.9 14.6-38.9 14.6-18.6 15.8-18.6 22-27.8 32.55-27.8 32.55-19.6 30.5-19.6 26.25-14.85ZM47.4-30.55L37.2-30.55 37.2-38.9 47.4-38.9 47.4-30.55ZM50.7 0L34.8 0 34.8-8.2 37-8.2 37-19.6 34.8-19.6 34.8-27.8 48.5-27.8 48.5-8.2 50.7-8.2 50.7 0ZM64.25 0.7Q57.95 0.7 52.1-1.3L52.1-1.3 52.1-8.7 60.2-8.7 60.2-8.2Q60.2-5.8 63.25-5.8L63.25-5.8Q65.95-5.8 65.95-7.65L65.95-7.65Q65.95-8.65 65.17-9.15 64.4-9.65 62.45-10L62.45-10 59.95-10.45Q52.1-11.85 52.1-19.35L52.1-19.35Q52.1-23.7 55.4-26.1 58.7-28.5 64.3-28.5L64.3-28.5Q70.55-28.5 74.85-26.4L74.85-26.4 74.85-19.45 67.25-19.45 67.25-19.95Q67.25-20.95 66.57-21.48 65.9-22 64.6-22L64.6-22Q62.1-22 62.1-20.4L62.1-20.4Q62.1-19.55 62.8-19.1 63.5-18.65 65.35-18.25L65.35-18.25 68.2-17.7Q72.65-16.85 74.55-14.55 76.45-12.25 76.45-8.65L76.45-8.65Q76.45-4.1 73.27-1.7 70.1 0.7 64.25 0.7L64.25 0.7ZM90.19 0.7Q83.89 0.7 78.04-1.3L78.04-1.3 78.04-8.7 86.14-8.7 86.14-8.2Q86.14-5.8 89.19-5.8L89.19-5.8Q91.89-5.8 91.89-7.65L91.89-7.65Q91.89-8.65 91.12-9.15 90.34-9.65 88.39-10L88.39-10 85.89-10.45Q78.04-11.85 78.04-19.35L78.04-19.35Q78.04-23.7 81.34-26.1 84.64-28.5 90.24-28.5L90.24-28.5Q96.49-28.5 100.79-26.4L100.79-26.4 100.79-19.45 93.19-19.45 93.19-19.95Q93.19-20.95 92.52-21.48 91.84-22 90.54-22L90.54-22Q88.04-22 88.04-20.4L88.04-20.4Q88.04-19.55 88.74-19.1 89.44-18.65 91.29-18.25L91.29-18.25 94.14-17.7Q98.59-16.85 100.49-14.55 102.39-12.25 102.39-8.65L102.39-8.65Q102.39-4.1 99.22-1.7 96.04 0.7 90.19 0.7L90.19 0.7ZM130.94-8.2L133.14-8.2 133.14 0 119.94 0 119.94-3.4Q118.84-1.8 116.87-0.55 114.89 0.7 112.04 0.7L112.04 0.7Q108.29 0.7 106.14-1.3 103.99-3.3 103.99-6.95L103.99-6.95Q103.99-16.4 120.04-16.65L120.04-16.65Q119.89-18.35 118.74-18.98 117.59-19.6 114.84-19.6L114.84-19.6Q112.59-19.6 110.02-19.13 107.44-18.65 105.29-17.85L105.29-17.85 105.29-27.05Q107.94-27.7 111.04-28.1 114.14-28.5 117.09-28.5L117.09-28.5Q124.54-28.5 127.74-25.8 130.94-23.1 130.94-17.45L130.94-17.45 130.94-8.2ZM119.94-11.4L119.94-11.7Q117.69-11.7 116.47-11.1 115.24-10.5 115.24-9.1L115.24-9.1Q115.24-8.25 115.77-7.73 116.29-7.2 117.24-7.2L117.24-7.2Q118.54-7.2 119.24-8.3 119.94-9.4 119.94-11.4L119.94-11.4ZM150.64 0.05L134.74 0.05 134.74-8.2 136.94-8.2 136.94-30.7 134.74-30.7 134.74-38.9 148.44-38.9 148.44-8.2 150.64-8.2 150.64 0.05Z" opacity="1" transform="matrix(1,0,0,1,0,0)" fill="#000000" class="wordmark-text-0" data-fill-palette-color="primary" id="text-0"></path></svg></g></svg></g></svg></g></svg></g><g><svg viewBox="0 0 144.54559027712858 144.54559027712858" height="144.54559027712858" width="144.54559027712858"><g><svg xmlns="http://www.w3.org/2000/svg" xmlns:xlink="http://www.w3.org/1999/xlink" version="1.1" x="0" y="0" viewBox="0 0 20 20" enable-background="new 0 0 20 20" xml:space="preserve" height="144.54559027712858" width="144.54559027712858" class="icon-icon-0" data-fill-palette-color="accent" id="icon-0"><path fill="#000000" d="M17.1 2.9L15.7 4.3C17.2 5.9 18 7.9 18 10 18 14.4 14.4 18 10 18S2 14.4 2 10C2 5.9 5.1 2.6 9 2.1V4.1C6.2 4.6 4 7 4 10 4 13.3 6.7 16 10 16S16 13.3 16 10C16 8.4 15.4 6.9 14.2 5.8L12.8 7.2C13.6 7.9 14 8.9 14 10 14 12.2 12.2 14 10 14S6 12.2 6 10C6 8.1 7.3 6.6 9 6.1V8.2C8.4 8.5 8 9.2 8 9.9 8 11 8.9 11.9 10 11.9S12 11 12 9.9C12 9.2 11.6 8.5 11 8.2V0H10C4.5 0 0 4.5 0 10S4.5 20 10 20 20 15.5 20 10C20 7.3 19 4.8 17.1 2.9" data-fill-palette-color="accent"></path></svg></g></svg></g></svg></g><defs></defs></svg><rect width="395.52" height="101.230539870244" fill="none" stroke="none" visibility="hidden"></rect></g></svg></g></svg>